<mxfile host="app.diagrams.net" agent="Mozilla/5.0 (Windows NT 10.0; Win64; x64) AppleWebKit/537.36 (KHTML, like Gecko) Chrome/139.0.0.0 Safari/537.36" version="28.1.0">
  <diagram name="Page-1" id="H2E_EblemhSVzdMvA1Wh">
    <mxGraphModel grid="1" page="1" gridSize="10" guides="1" tooltips="1" connect="1" arrows="1" fold="1" pageScale="1" pageWidth="850" pageHeight="1100" math="0" shadow="0">
      <root>
        <mxCell id="0" />
        <mxCell id="1" parent="0" />
        <mxCell id="uh4WRYORKKi7xRXd5uPY-1" value="&lt;font style=&quot;font-size: 18px;&quot;&gt;Start&lt;/font&gt;" style="ellipse;whiteSpace=wrap;html=1;fillColor=#d5e8d4;strokeColor=#82b366;" vertex="1" parent="1">
          <mxGeometry x="310.5" y="40" width="110" height="70" as="geometry" />
        </mxCell>
        <mxCell id="uh4WRYORKKi7xRXd5uPY-2" value="" style="endArrow=classic;html=1;rounded=0;exitX=0.5;exitY=1;exitDx=0;exitDy=0;" edge="1" parent="1">
          <mxGeometry width="50" height="50" relative="1" as="geometry">
            <mxPoint x="365" y="110" as="sourcePoint" />
            <mxPoint x="365" y="150" as="targetPoint" />
          </mxGeometry>
        </mxCell>
        <mxCell id="uh4WRYORKKi7xRXd5uPY-4" value="&lt;font style=&quot;font-size: 18px;&quot;&gt;Input values feeding_time, maximum_bowl_weight, minimum_bowl_weight, max_consumption_time&lt;/font&gt;" style="rounded=0;whiteSpace=wrap;html=1;fillColor=#dae8fc;strokeColor=#6c8ebf;" vertex="1" parent="1">
          <mxGeometry x="100" y="250" width="530" height="60" as="geometry" />
        </mxCell>
        <mxCell id="uh4WRYORKKi7xRXd5uPY-5" value="" style="endArrow=classic;html=1;rounded=0;exitX=0.5;exitY=1;exitDx=0;exitDy=0;" edge="1" parent="1">
          <mxGeometry width="50" height="50" relative="1" as="geometry">
            <mxPoint x="365" y="210" as="sourcePoint" />
            <mxPoint x="365" y="250" as="targetPoint" />
          </mxGeometry>
        </mxCell>
        <mxCell id="uh4WRYORKKi7xRXd5uPY-7" value="&lt;font style=&quot;font-size: 18px;&quot;&gt;Set power on, initialize system time variable system_time&amp;nbsp;&lt;/font&gt;" style="rounded=0;whiteSpace=wrap;html=1;fillColor=#dae8fc;strokeColor=#6c8ebf;" vertex="1" parent="1">
          <mxGeometry x="165" y="150" width="400" height="60" as="geometry" />
        </mxCell>
        <mxCell id="uh4WRYORKKi7xRXd5uPY-8" value="" style="endArrow=classic;html=1;rounded=0;exitX=0.5;exitY=1;exitDx=0;exitDy=0;" edge="1" parent="1">
          <mxGeometry width="50" height="50" relative="1" as="geometry">
            <mxPoint x="364" y="310" as="sourcePoint" />
            <mxPoint x="364" y="350" as="targetPoint" />
          </mxGeometry>
        </mxCell>
        <mxCell id="uh4WRYORKKi7xRXd5uPY-9" value="&lt;font style=&quot;font-size: 18px;&quot;&gt;Is system_time = feeding_time?&lt;/font&gt;" style="rhombus;whiteSpace=wrap;html=1;fillColor=#e1d5e7;strokeColor=#9673a6;" vertex="1" parent="1">
          <mxGeometry x="252" y="350" width="227" height="160" as="geometry" />
        </mxCell>
        <mxCell id="uh4WRYORKKi7xRXd5uPY-10" value="" style="endArrow=classic;html=1;rounded=0;exitX=0.5;exitY=1;exitDx=0;exitDy=0;" edge="1" parent="1">
          <mxGeometry width="50" height="50" relative="1" as="geometry">
            <mxPoint x="365.14" y="510" as="sourcePoint" />
            <mxPoint x="365.14" y="550" as="targetPoint" />
          </mxGeometry>
        </mxCell>
        <mxCell id="uh4WRYORKKi7xRXd5uPY-15" value="&lt;font style=&quot;font-size: 14px;&quot;&gt;Yes&lt;/font&gt;" style="edgeLabel;html=1;align=center;verticalAlign=middle;resizable=0;points=[];" connectable="0" vertex="1" parent="uh4WRYORKKi7xRXd5uPY-10">
          <mxGeometry x="-0.1514" relative="1" as="geometry">
            <mxPoint y="-1" as="offset" />
          </mxGeometry>
        </mxCell>
        <mxCell id="uh4WRYORKKi7xRXd5uPY-12" value="" style="endArrow=classic;html=1;rounded=0;exitX=1;exitY=0.5;exitDx=0;exitDy=0;" edge="1" parent="1" source="uh4WRYORKKi7xRXd5uPY-9">
          <mxGeometry width="50" height="50" relative="1" as="geometry">
            <mxPoint x="515" y="440" as="sourcePoint" />
            <mxPoint x="366" y="330" as="targetPoint" />
            <Array as="points">
              <mxPoint x="570" y="430" />
              <mxPoint x="570" y="330" />
            </Array>
          </mxGeometry>
        </mxCell>
        <mxCell id="uh4WRYORKKi7xRXd5uPY-14" value="&lt;font style=&quot;font-size: 14px;&quot;&gt;No&lt;/font&gt;" style="edgeLabel;html=1;align=center;verticalAlign=middle;resizable=0;points=[];" connectable="0" vertex="1" parent="uh4WRYORKKi7xRXd5uPY-12">
          <mxGeometry x="-0.702" y="4" relative="1" as="geometry">
            <mxPoint as="offset" />
          </mxGeometry>
        </mxCell>
        <mxCell id="uh4WRYORKKi7xRXd5uPY-16" value="&lt;font style=&quot;font-size: 18px;&quot;&gt;Food Stock present?&lt;/font&gt;" style="rhombus;whiteSpace=wrap;html=1;fillColor=#e1d5e7;strokeColor=#9673a6;" vertex="1" parent="1">
          <mxGeometry x="302" y="550" width="127" height="110" as="geometry" />
        </mxCell>
        <mxCell id="uh4WRYORKKi7xRXd5uPY-17" value="" style="endArrow=classic;html=1;rounded=0;exitX=0.5;exitY=1;exitDx=0;exitDy=0;" edge="1" parent="1">
          <mxGeometry width="50" height="50" relative="1" as="geometry">
            <mxPoint x="365.41" y="660" as="sourcePoint" />
            <mxPoint x="365.41" y="700" as="targetPoint" />
          </mxGeometry>
        </mxCell>
        <mxCell id="uh4WRYORKKi7xRXd5uPY-18" value="&lt;font style=&quot;font-size: 14px;&quot;&gt;Yes&lt;/font&gt;" style="edgeLabel;html=1;align=center;verticalAlign=middle;resizable=0;points=[];" connectable="0" vertex="1" parent="uh4WRYORKKi7xRXd5uPY-17">
          <mxGeometry x="-0.4845" y="2" relative="1" as="geometry">
            <mxPoint as="offset" />
          </mxGeometry>
        </mxCell>
        <mxCell id="uh4WRYORKKi7xRXd5uPY-19" value="" style="endArrow=classic;html=1;rounded=0;exitX=1;exitY=0.5;exitDx=0;exitDy=0;" edge="1" parent="1" source="uh4WRYORKKi7xRXd5uPY-16">
          <mxGeometry width="50" height="50" relative="1" as="geometry">
            <mxPoint x="450" y="630" as="sourcePoint" />
            <mxPoint x="500" y="605" as="targetPoint" />
          </mxGeometry>
        </mxCell>
        <mxCell id="uh4WRYORKKi7xRXd5uPY-20" value="&lt;font style=&quot;font-size: 14px;&quot;&gt;No&lt;/font&gt;" style="edgeLabel;html=1;align=center;verticalAlign=middle;resizable=0;points=[];" connectable="0" vertex="1" parent="uh4WRYORKKi7xRXd5uPY-19">
          <mxGeometry x="-0.0805" y="2" relative="1" as="geometry">
            <mxPoint as="offset" />
          </mxGeometry>
        </mxCell>
        <mxCell id="uh4WRYORKKi7xRXd5uPY-21" value="&lt;font style=&quot;font-size: 18px;&quot;&gt;Send alert and message &quot;Food stock empty&quot;&lt;/font&gt;" style="shape=parallelogram;perimeter=parallelogramPerimeter;whiteSpace=wrap;html=1;fixedSize=1;fillColor=#f8cecc;strokeColor=#b85450;" vertex="1" parent="1">
          <mxGeometry x="490" y="575" width="230" height="75" as="geometry" />
        </mxCell>
        <mxCell id="uh4WRYORKKi7xRXd5uPY-22" value="" style="endArrow=classic;html=1;rounded=0;exitX=1;exitY=0.5;exitDx=0;exitDy=0;" edge="1" parent="1" source="uh4WRYORKKi7xRXd5uPY-21">
          <mxGeometry width="50" height="50" relative="1" as="geometry">
            <mxPoint x="760" y="610" as="sourcePoint" />
            <mxPoint x="370" y="520" as="targetPoint" />
            <Array as="points">
              <mxPoint x="760" y="613" />
              <mxPoint x="760" y="520" />
            </Array>
          </mxGeometry>
        </mxCell>
        <mxCell id="uh4WRYORKKi7xRXd5uPY-23" value="&lt;font style=&quot;font-size: 18px;&quot;&gt;Rotate the motor, dispense food and monitor the weight of the bowl&lt;/font&gt;" style="rounded=0;whiteSpace=wrap;html=1;fillColor=#dae8fc;strokeColor=#6c8ebf;" vertex="1" parent="1">
          <mxGeometry x="252" y="700" width="249.5" height="60" as="geometry" />
        </mxCell>
        <mxCell id="uh4WRYORKKi7xRXd5uPY-25" value="" style="endArrow=classic;html=1;rounded=0;exitX=0.5;exitY=1;exitDx=0;exitDy=0;" edge="1" parent="1">
          <mxGeometry width="50" height="50" relative="1" as="geometry">
            <mxPoint x="365.14" y="760" as="sourcePoint" />
            <mxPoint x="365.14" y="800" as="targetPoint" />
          </mxGeometry>
        </mxCell>
        <mxCell id="uh4WRYORKKi7xRXd5uPY-26" value="&lt;span style=&quot;font-size: 18px;&quot;&gt;Is weight of bowl&lt;/span&gt;&lt;div&gt;&lt;span style=&quot;font-size: 18px;&quot;&gt;&amp;nbsp;changed?&lt;/span&gt;&lt;/div&gt;" style="rhombus;whiteSpace=wrap;html=1;fillColor=#e1d5e7;strokeColor=#9673a6;" vertex="1" parent="1">
          <mxGeometry x="235.75" y="800" width="259.5" height="180" as="geometry" />
        </mxCell>
        <mxCell id="uh4WRYORKKi7xRXd5uPY-29" value="" style="endArrow=classic;html=1;rounded=0;exitX=0.5;exitY=1;exitDx=0;exitDy=0;" edge="1" parent="1">
          <mxGeometry width="50" height="50" relative="1" as="geometry">
            <mxPoint x="365.23" y="980" as="sourcePoint" />
            <mxPoint x="365.23" y="1020" as="targetPoint" />
          </mxGeometry>
        </mxCell>
        <mxCell id="uh4WRYORKKi7xRXd5uPY-31" value="&lt;font style=&quot;font-size: 14px;&quot;&gt;Yes&lt;/font&gt;" style="edgeLabel;html=1;align=center;verticalAlign=middle;resizable=0;points=[];" connectable="0" vertex="1" parent="uh4WRYORKKi7xRXd5uPY-29">
          <mxGeometry x="-0.3344" relative="1" as="geometry">
            <mxPoint as="offset" />
          </mxGeometry>
        </mxCell>
        <mxCell id="uh4WRYORKKi7xRXd5uPY-30" value="&lt;font style=&quot;font-size: 18px;&quot;&gt;A&lt;/font&gt;" style="ellipse;whiteSpace=wrap;html=1;aspect=fixed;fillColor=#fff2cc;strokeColor=#d6b656;" vertex="1" parent="1">
          <mxGeometry x="345" y="1020" width="40" height="40" as="geometry" />
        </mxCell>
        <mxCell id="9OfdWjOIMQFV0YQEvVPP-1" value="&lt;font style=&quot;font-size: 18px;&quot;&gt;A&lt;/font&gt;" style="ellipse;whiteSpace=wrap;html=1;aspect=fixed;fillColor=#fff2cc;strokeColor=#d6b656;" vertex="1" parent="1">
          <mxGeometry x="345.5" y="1120" width="40" height="40" as="geometry" />
        </mxCell>
        <mxCell id="9OfdWjOIMQFV0YQEvVPP-2" value="" style="endArrow=classic;html=1;rounded=0;exitX=0.5;exitY=1;exitDx=0;exitDy=0;" edge="1" parent="1">
          <mxGeometry width="50" height="50" relative="1" as="geometry">
            <mxPoint x="365.08" y="1160" as="sourcePoint" />
            <mxPoint x="365.08" y="1200" as="targetPoint" />
          </mxGeometry>
        </mxCell>
        <mxCell id="9OfdWjOIMQFV0YQEvVPP-3" value="&lt;font style=&quot;font-size: 18px;&quot;&gt;IS_WEIGHT_CHANGED&lt;/font&gt;&lt;div&gt;&lt;font style=&quot;font-size: 18px;&quot;&gt;= true?&lt;/font&gt;&lt;/div&gt;" style="rhombus;whiteSpace=wrap;html=1;fillColor=#e1d5e7;strokeColor=#9673a6;" vertex="1" parent="1">
          <mxGeometry x="237.13" y="1640" width="256.74" height="190" as="geometry" />
        </mxCell>
        <mxCell id="9OfdWjOIMQFV0YQEvVPP-5" value="" style="endArrow=classic;html=1;rounded=0;exitX=0.5;exitY=1;exitDx=0;exitDy=0;" edge="1" parent="1">
          <mxGeometry width="50" height="50" relative="1" as="geometry">
            <mxPoint x="365.11" y="1600" as="sourcePoint" />
            <mxPoint x="365.11" y="1640" as="targetPoint" />
          </mxGeometry>
        </mxCell>
        <mxCell id="9OfdWjOIMQFV0YQEvVPP-6" value="" style="endArrow=classic;html=1;rounded=0;exitX=0.5;exitY=1;exitDx=0;exitDy=0;" edge="1" parent="1">
          <mxGeometry width="50" height="50" relative="1" as="geometry">
            <mxPoint x="364.6" y="1830" as="sourcePoint" />
            <mxPoint x="364.6" y="1870" as="targetPoint" />
          </mxGeometry>
        </mxCell>
        <mxCell id="9OfdWjOIMQFV0YQEvVPP-7" value="&lt;font style=&quot;font-size: 14px;&quot;&gt;Yes&lt;/font&gt;" style="edgeLabel;html=1;align=center;verticalAlign=middle;resizable=0;points=[];" connectable="0" vertex="1" parent="9OfdWjOIMQFV0YQEvVPP-6">
          <mxGeometry x="-0.0105" y="-2" relative="1" as="geometry">
            <mxPoint as="offset" />
          </mxGeometry>
        </mxCell>
        <mxCell id="9OfdWjOIMQFV0YQEvVPP-8" value="" style="endArrow=classic;html=1;rounded=0;exitX=1;exitY=0.5;exitDx=0;exitDy=0;" edge="1" parent="1" source="9OfdWjOIMQFV0YQEvVPP-3">
          <mxGeometry width="50" height="50" relative="1" as="geometry">
            <mxPoint x="565" y="1740" as="sourcePoint" />
            <mxPoint x="580" y="1735" as="targetPoint" />
          </mxGeometry>
        </mxCell>
        <mxCell id="9OfdWjOIMQFV0YQEvVPP-9" value="&lt;font style=&quot;font-size: 14px;&quot;&gt;No&lt;/font&gt;" style="edgeLabel;html=1;align=center;verticalAlign=middle;resizable=0;points=[];" connectable="0" vertex="1" parent="9OfdWjOIMQFV0YQEvVPP-8">
          <mxGeometry x="0.4013" y="1" relative="1" as="geometry">
            <mxPoint as="offset" />
          </mxGeometry>
        </mxCell>
        <mxCell id="9OfdWjOIMQFV0YQEvVPP-10" value="&lt;font style=&quot;font-size: 18px;&quot;&gt;Send alert with a message &quot;Food not eaten&quot;&lt;/font&gt;" style="shape=parallelogram;perimeter=parallelogramPerimeter;whiteSpace=wrap;html=1;fixedSize=1;fillColor=#f8cecc;strokeColor=#b85450;" vertex="1" parent="1">
          <mxGeometry x="570" y="1705" width="190" height="60" as="geometry" />
        </mxCell>
        <mxCell id="9OfdWjOIMQFV0YQEvVPP-11" value="&lt;font style=&quot;font-size: 18px;&quot;&gt;Monitor the weight of the bowl&lt;/font&gt;" style="rounded=0;whiteSpace=wrap;html=1;fillColor=#dae8fc;strokeColor=#6c8ebf;" vertex="1" parent="1">
          <mxGeometry x="263.26" y="1870" width="204.49" height="60" as="geometry" />
        </mxCell>
        <mxCell id="9OfdWjOIMQFV0YQEvVPP-12" value="" style="endArrow=classic;html=1;rounded=0;exitX=0.5;exitY=1;exitDx=0;exitDy=0;" edge="1" parent="1">
          <mxGeometry width="50" height="50" relative="1" as="geometry">
            <mxPoint x="364.73" y="1930" as="sourcePoint" />
            <mxPoint x="364.73" y="1970" as="targetPoint" />
          </mxGeometry>
        </mxCell>
        <mxCell id="9OfdWjOIMQFV0YQEvVPP-13" value="&lt;span style=&quot;font-size: 18px;&quot;&gt;Is&amp;nbsp;&lt;/span&gt;&lt;div&gt;&lt;span style=&quot;font-size: 18px;&quot;&gt;weight = minimum&amp;nbsp;&lt;/span&gt;&lt;/div&gt;&lt;div&gt;&lt;span style=&quot;font-size: 18px;&quot;&gt;weight after&amp;nbsp;&lt;/span&gt;&lt;div&gt;&lt;span style=&quot;font-size: 18px;&quot;&gt;consumption?&lt;/span&gt;&lt;/div&gt;&lt;/div&gt;" style="rhombus;whiteSpace=wrap;html=1;fillColor=#e1d5e7;strokeColor=#9673a6;" vertex="1" parent="1">
          <mxGeometry x="256.89" y="1970" width="217.24" height="190" as="geometry" />
        </mxCell>
        <mxCell id="9OfdWjOIMQFV0YQEvVPP-14" value="" style="endArrow=classic;html=1;rounded=0;exitX=1;exitY=0.5;exitDx=0;exitDy=0;" edge="1" parent="1" source="9OfdWjOIMQFV0YQEvVPP-13">
          <mxGeometry width="50" height="50" relative="1" as="geometry">
            <mxPoint x="560" y="2110" as="sourcePoint" />
            <mxPoint x="580" y="2065" as="targetPoint" />
          </mxGeometry>
        </mxCell>
        <mxCell id="9OfdWjOIMQFV0YQEvVPP-15" value="&lt;font style=&quot;font-size: 14px;&quot;&gt;No&lt;/font&gt;" style="edgeLabel;html=1;align=center;verticalAlign=middle;resizable=0;points=[];" connectable="0" vertex="1" parent="9OfdWjOIMQFV0YQEvVPP-14">
          <mxGeometry x="0.4134" y="1" relative="1" as="geometry">
            <mxPoint as="offset" />
          </mxGeometry>
        </mxCell>
        <mxCell id="9OfdWjOIMQFV0YQEvVPP-16" value="&lt;font style=&quot;font-size: 18px;&quot;&gt;Send a message &quot;Food Partially eaten&quot;&lt;/font&gt;" style="shape=parallelogram;perimeter=parallelogramPerimeter;whiteSpace=wrap;html=1;fixedSize=1;fillColor=#d5e8d4;strokeColor=#82b366;" vertex="1" parent="1">
          <mxGeometry x="565" y="2040" width="240" height="60" as="geometry" />
        </mxCell>
        <mxCell id="9OfdWjOIMQFV0YQEvVPP-20" value="&lt;font style=&quot;font-size: 18px;&quot;&gt;B&lt;/font&gt;" style="ellipse;whiteSpace=wrap;html=1;aspect=fixed;fillColor=#fff2cc;strokeColor=#d6b656;" vertex="1" parent="1">
          <mxGeometry x="130" y="1120" width="40" height="40" as="geometry" />
        </mxCell>
        <mxCell id="9OfdWjOIMQFV0YQEvVPP-31" value="&lt;font style=&quot;font-size: 18px;&quot;&gt;B&lt;/font&gt;" style="ellipse;whiteSpace=wrap;html=1;aspect=fixed;fillColor=#fff2cc;strokeColor=#d6b656;" vertex="1" parent="1">
          <mxGeometry x="130" y="1020" width="40" height="40" as="geometry" />
        </mxCell>
        <mxCell id="9OfdWjOIMQFV0YQEvVPP-33" value="" style="endArrow=classic;html=1;rounded=0;exitX=0.5;exitY=0;exitDx=0;exitDy=0;" edge="1" parent="1" source="9OfdWjOIMQFV0YQEvVPP-31">
          <mxGeometry width="50" height="50" relative="1" as="geometry">
            <mxPoint x="100" y="940" as="sourcePoint" />
            <mxPoint x="250" y="730" as="targetPoint" />
            <Array as="points">
              <mxPoint x="150" y="730" />
            </Array>
          </mxGeometry>
        </mxCell>
        <mxCell id="KGp9ORMU8DFzp6AXDRzC-1" value="&lt;span style=&quot;font-size: 18px;&quot;&gt;Is weight of bowl=&lt;/span&gt;&lt;div&gt;&lt;span style=&quot;font-size: 18px;&quot;&gt;maximum weight of bowl&lt;/span&gt;&lt;/div&gt;&lt;div&gt;&lt;span style=&quot;font-size: 18px;&quot;&gt;?&lt;/span&gt;&lt;/div&gt;" style="rhombus;whiteSpace=wrap;html=1;fillColor=#e1d5e7;strokeColor=#9673a6;" vertex="1" parent="1">
          <mxGeometry x="237.14" y="1200" width="256.74" height="190" as="geometry" />
        </mxCell>
        <mxCell id="KGp9ORMU8DFzp6AXDRzC-2" value="" style="endArrow=classic;html=1;rounded=0;exitX=0.5;exitY=1;exitDx=0;exitDy=0;" edge="1" parent="1">
          <mxGeometry width="50" height="50" relative="1" as="geometry">
            <mxPoint x="365.3" y="1390" as="sourcePoint" />
            <mxPoint x="365.3" y="1430" as="targetPoint" />
          </mxGeometry>
        </mxCell>
        <mxCell id="KGp9ORMU8DFzp6AXDRzC-5" value="&lt;font style=&quot;font-size: 14px;&quot;&gt;Yes&lt;/font&gt;" style="edgeLabel;html=1;align=center;verticalAlign=middle;resizable=0;points=[];" connectable="0" vertex="1" parent="KGp9ORMU8DFzp6AXDRzC-2">
          <mxGeometry x="-0.2487" y="3" relative="1" as="geometry">
            <mxPoint as="offset" />
          </mxGeometry>
        </mxCell>
        <mxCell id="KGp9ORMU8DFzp6AXDRzC-6" value="" style="endArrow=classic;html=1;rounded=0;exitX=1;exitY=0.5;exitDx=0;exitDy=0;" edge="1" parent="1">
          <mxGeometry width="50" height="50" relative="1" as="geometry">
            <mxPoint x="495.24999999999983" y="889.88" as="sourcePoint" />
            <mxPoint x="551.3699999999999" y="889.88" as="targetPoint" />
          </mxGeometry>
        </mxCell>
        <mxCell id="KGp9ORMU8DFzp6AXDRzC-7" value="&lt;font style=&quot;font-size: 14px;&quot;&gt;No&lt;/font&gt;" style="edgeLabel;html=1;align=center;verticalAlign=middle;resizable=0;points=[];" connectable="0" vertex="1" parent="KGp9ORMU8DFzp6AXDRzC-6">
          <mxGeometry x="0.5238" y="1" relative="1" as="geometry">
            <mxPoint as="offset" />
          </mxGeometry>
        </mxCell>
        <mxCell id="KGp9ORMU8DFzp6AXDRzC-8" value="&lt;font style=&quot;font-size: 18px;&quot;&gt;Send alert and message &quot;Food not&amp;nbsp;&lt;/font&gt;&lt;div&gt;&lt;font style=&quot;font-size: 18px;&quot;&gt;dispensed&quot;&lt;/font&gt;&lt;/div&gt;" style="shape=parallelogram;perimeter=parallelogramPerimeter;whiteSpace=wrap;html=1;fixedSize=1;fillColor=#f8cecc;strokeColor=#b85450;" vertex="1" parent="1">
          <mxGeometry x="539.9999999999999" y="855" width="230" height="70" as="geometry" />
        </mxCell>
        <mxCell id="KGp9ORMU8DFzp6AXDRzC-10" value="&lt;font style=&quot;font-size: 18px;&quot;&gt;Stop the motor and set IS_FEEDING_TIME= false&lt;/font&gt;" style="rounded=0;whiteSpace=wrap;html=1;fillColor=#dae8fc;strokeColor=#6c8ebf;" vertex="1" parent="1">
          <mxGeometry x="179.62" y="1430" width="371.75" height="60" as="geometry" />
        </mxCell>
        <mxCell id="KGp9ORMU8DFzp6AXDRzC-13" value="" style="endArrow=classic;html=1;rounded=0;exitX=0;exitY=0.5;exitDx=0;exitDy=0;entryX=0.5;entryY=1;entryDx=0;entryDy=0;" edge="1" parent="1" source="KGp9ORMU8DFzp6AXDRzC-1" target="9OfdWjOIMQFV0YQEvVPP-20">
          <mxGeometry width="50" height="50" relative="1" as="geometry">
            <mxPoint x="180" y="1280" as="sourcePoint" />
            <mxPoint x="150" y="1190" as="targetPoint" />
            <Array as="points">
              <mxPoint x="150" y="1295" />
            </Array>
          </mxGeometry>
        </mxCell>
        <mxCell id="KGp9ORMU8DFzp6AXDRzC-40" value="&lt;font style=&quot;font-size: 14px;&quot;&gt;No&lt;/font&gt;" style="edgeLabel;html=1;align=center;verticalAlign=middle;resizable=0;points=[];" connectable="0" vertex="1" parent="KGp9ORMU8DFzp6AXDRzC-13">
          <mxGeometry x="-0.7834" relative="1" as="geometry">
            <mxPoint as="offset" />
          </mxGeometry>
        </mxCell>
        <mxCell id="KGp9ORMU8DFzp6AXDRzC-14" value="" style="endArrow=classic;html=1;rounded=0;exitX=0.5;exitY=1;exitDx=0;exitDy=0;" edge="1" parent="1">
          <mxGeometry width="50" height="50" relative="1" as="geometry">
            <mxPoint x="365.28" y="1490" as="sourcePoint" />
            <mxPoint x="365.28" y="1530" as="targetPoint" />
          </mxGeometry>
        </mxCell>
        <mxCell id="KGp9ORMU8DFzp6AXDRzC-15" value="&lt;span style=&quot;font-size: 18px;&quot;&gt;If weight of the bowl = maximum weight and time = max_consumption_time set IS_WEIGHT_CHANGED= false&lt;/span&gt;" style="rounded=0;whiteSpace=wrap;html=1;fillColor=#dae8fc;strokeColor=#6c8ebf;" vertex="1" parent="1">
          <mxGeometry x="179.82" y="1530" width="370.37" height="70" as="geometry" />
        </mxCell>
        <mxCell id="KGp9ORMU8DFzp6AXDRzC-16" value="&lt;font style=&quot;font-size: 18px;&quot;&gt;C&lt;/font&gt;" style="ellipse;whiteSpace=wrap;html=1;aspect=fixed;fillColor=#fff2cc;strokeColor=#d6b656;" vertex="1" parent="1">
          <mxGeometry x="50" y="1120" width="40" height="40" as="geometry" />
        </mxCell>
        <mxCell id="KGp9ORMU8DFzp6AXDRzC-18" value="&lt;font style=&quot;font-size: 18px;&quot;&gt;C&lt;/font&gt;" style="ellipse;whiteSpace=wrap;html=1;aspect=fixed;fillColor=#fff2cc;strokeColor=#d6b656;" vertex="1" parent="1">
          <mxGeometry x="50" y="1020" width="40" height="40" as="geometry" />
        </mxCell>
        <mxCell id="KGp9ORMU8DFzp6AXDRzC-19" value="" style="endArrow=classic;html=1;rounded=0;exitX=0.5;exitY=0;exitDx=0;exitDy=0;" edge="1" parent="1" source="KGp9ORMU8DFzp6AXDRzC-18">
          <mxGeometry width="50" height="50" relative="1" as="geometry">
            <mxPoint x="30" y="960" as="sourcePoint" />
            <mxPoint x="360" y="330" as="targetPoint" />
            <Array as="points">
              <mxPoint x="70" y="330" />
            </Array>
          </mxGeometry>
        </mxCell>
        <mxCell id="KGp9ORMU8DFzp6AXDRzC-26" value="&lt;font style=&quot;font-size: 18px;&quot;&gt;Send a message &quot;Food completely eaten&quot;&lt;/font&gt;" style="shape=parallelogram;perimeter=parallelogramPerimeter;whiteSpace=wrap;html=1;fixedSize=1;fillColor=#d5e8d4;strokeColor=#82b366;" vertex="1" parent="1">
          <mxGeometry x="10" y="2040" width="240" height="60" as="geometry" />
        </mxCell>
        <mxCell id="KGp9ORMU8DFzp6AXDRzC-27" value="" style="endArrow=classic;html=1;rounded=0;exitX=0.5;exitY=1;exitDx=0;exitDy=0;entryX=0.25;entryY=1;entryDx=0;entryDy=0;" edge="1" parent="1" source="9OfdWjOIMQFV0YQEvVPP-13" target="KGp9ORMU8DFzp6AXDRzC-26">
          <mxGeometry width="50" height="50" relative="1" as="geometry">
            <mxPoint x="80" y="2150" as="sourcePoint" />
            <mxPoint x="130" y="2100" as="targetPoint" />
            <Array as="points">
              <mxPoint x="366" y="2180" />
              <mxPoint x="70" y="2180" />
            </Array>
          </mxGeometry>
        </mxCell>
        <mxCell id="KGp9ORMU8DFzp6AXDRzC-28" value="&lt;font style=&quot;font-size: 18px;&quot;&gt;Yes&lt;/font&gt;" style="edgeLabel;html=1;align=center;verticalAlign=middle;resizable=0;points=[];" connectable="0" vertex="1" parent="KGp9ORMU8DFzp6AXDRzC-27">
          <mxGeometry x="-0.2746" y="3" relative="1" as="geometry">
            <mxPoint as="offset" />
          </mxGeometry>
        </mxCell>
        <mxCell id="KGp9ORMU8DFzp6AXDRzC-29" value="" style="endArrow=classic;html=1;rounded=0;entryX=0.5;entryY=1;entryDx=0;entryDy=0;exitX=0.25;exitY=0;exitDx=0;exitDy=0;" edge="1" parent="1" source="KGp9ORMU8DFzp6AXDRzC-26" target="KGp9ORMU8DFzp6AXDRzC-16">
          <mxGeometry width="50" height="50" relative="1" as="geometry">
            <mxPoint x="80" y="2030" as="sourcePoint" />
            <mxPoint x="120" y="1880" as="targetPoint" />
          </mxGeometry>
        </mxCell>
        <mxCell id="KGp9ORMU8DFzp6AXDRzC-31" value="D" style="ellipse;whiteSpace=wrap;html=1;aspect=fixed;fillColor=#fff2cc;strokeColor=#d6b656;" vertex="1" parent="1">
          <mxGeometry x="765" y="1110" width="40" height="40" as="geometry" />
        </mxCell>
        <mxCell id="KGp9ORMU8DFzp6AXDRzC-32" value="D" style="ellipse;whiteSpace=wrap;html=1;aspect=fixed;fillColor=#fff2cc;strokeColor=#d6b656;" vertex="1" parent="1">
          <mxGeometry x="790" y="1020" width="40" height="40" as="geometry" />
        </mxCell>
        <mxCell id="KGp9ORMU8DFzp6AXDRzC-34" value="" style="endArrow=classic;html=1;rounded=0;exitX=0.5;exitY=0;exitDx=0;exitDy=0;" edge="1" parent="1" source="KGp9ORMU8DFzp6AXDRzC-32">
          <mxGeometry width="50" height="50" relative="1" as="geometry">
            <mxPoint x="780" y="950" as="sourcePoint" />
            <mxPoint x="370" y="320" as="targetPoint" />
            <Array as="points">
              <mxPoint x="810" y="320" />
            </Array>
          </mxGeometry>
        </mxCell>
        <mxCell id="KGp9ORMU8DFzp6AXDRzC-35" value="" style="endArrow=classic;html=1;rounded=0;exitX=0.896;exitY=0.006;exitDx=0;exitDy=0;exitPerimeter=0;entryX=0.5;entryY=1;entryDx=0;entryDy=0;" edge="1" parent="1" source="9OfdWjOIMQFV0YQEvVPP-16" target="KGp9ORMU8DFzp6AXDRzC-31">
          <mxGeometry width="50" height="50" relative="1" as="geometry">
            <mxPoint x="810" y="1660" as="sourcePoint" />
            <mxPoint x="800" y="1160" as="targetPoint" />
          </mxGeometry>
        </mxCell>
        <mxCell id="KGp9ORMU8DFzp6AXDRzC-36" value="&lt;font style=&quot;font-size: 18px;&quot;&gt;Figure: Flow chart for Automatic Pet feeder System&lt;/font&gt;" style="text;html=1;align=center;verticalAlign=middle;resizable=0;points=[];autosize=1;strokeColor=none;fillColor=none;" vertex="1" parent="1">
          <mxGeometry x="400" y="2150" width="430" height="40" as="geometry" />
        </mxCell>
        <mxCell id="KGp9ORMU8DFzp6AXDRzC-37" value="&lt;span style=&quot;font-size: 18px;&quot;&gt;Wait for manual attention from user&lt;/span&gt;" style="rounded=0;whiteSpace=wrap;html=1;fillColor=#dae8fc;strokeColor=#6c8ebf;" vertex="1" parent="1">
          <mxGeometry x="540.5" y="760" width="249.5" height="60" as="geometry" />
        </mxCell>
        <mxCell id="KGp9ORMU8DFzp6AXDRzC-38" value="" style="endArrow=classic;html=1;rounded=0;exitX=0.557;exitY=0.004;exitDx=0;exitDy=0;exitPerimeter=0;entryX=0.511;entryY=1;entryDx=0;entryDy=0;entryPerimeter=0;" edge="1" parent="1" source="KGp9ORMU8DFzp6AXDRzC-8" target="KGp9ORMU8DFzp6AXDRzC-37">
          <mxGeometry width="50" height="50" relative="1" as="geometry">
            <mxPoint x="620" y="870" as="sourcePoint" />
            <mxPoint x="670" y="820" as="targetPoint" />
          </mxGeometry>
        </mxCell>
        <mxCell id="KGp9ORMU8DFzp6AXDRzC-39" value="" style="endArrow=classic;html=1;rounded=0;" edge="1" parent="1">
          <mxGeometry width="50" height="50" relative="1" as="geometry">
            <mxPoint x="540" y="780" as="sourcePoint" />
            <mxPoint x="370" y="780" as="targetPoint" />
          </mxGeometry>
        </mxCell>
        <mxCell id="KGp9ORMU8DFzp6AXDRzC-41" value="&lt;span style=&quot;font-size: 18px;&quot;&gt;Wait for an hour&lt;/span&gt;" style="rounded=0;whiteSpace=wrap;html=1;fillColor=#dae8fc;strokeColor=#6c8ebf;" vertex="1" parent="1">
          <mxGeometry x="515.5" y="1610" width="249.5" height="60" as="geometry" />
        </mxCell>
        <mxCell id="KGp9ORMU8DFzp6AXDRzC-42" value="" style="endArrow=classic;html=1;rounded=0;exitX=0.5;exitY=0;exitDx=0;exitDy=0;entryX=0.602;entryY=0.989;entryDx=0;entryDy=0;entryPerimeter=0;" edge="1" parent="1" source="9OfdWjOIMQFV0YQEvVPP-10" target="KGp9ORMU8DFzp6AXDRzC-41">
          <mxGeometry width="50" height="50" relative="1" as="geometry">
            <mxPoint x="620" y="1720" as="sourcePoint" />
            <mxPoint x="670" y="1670" as="targetPoint" />
          </mxGeometry>
        </mxCell>
        <mxCell id="KGp9ORMU8DFzp6AXDRzC-43" value="" style="endArrow=classic;html=1;rounded=0;exitX=0.002;exitY=0.165;exitDx=0;exitDy=0;exitPerimeter=0;" edge="1" parent="1" source="KGp9ORMU8DFzp6AXDRzC-41">
          <mxGeometry width="50" height="50" relative="1" as="geometry">
            <mxPoint x="480" y="1680" as="sourcePoint" />
            <mxPoint x="370" y="1620" as="targetPoint" />
          </mxGeometry>
        </mxCell>
      </root>
    </mxGraphModel>
  </diagram>
</mxfile>
